# xmcd
#
# Track frame offsets: 
#        150
#        10281
#        21390
#        34898
#        46425
#        57293
#        69936
#        78608
#        92204
#        106048
#        118427
#        131741
#        144154
#        152991
#        163348
#        178637
#        190689
#        201699
#        214026
#        223645
#        236166
#        248309
#        259021
#        271740
#
# Disc length: 3761 seconds
#
# Revision: 2
# Processed by: cddbd v1.5.2PL0 Copyright (c) Steve Scherf et al.
# Submitted via: ExactAudioCopyFreeDBPlugin 1.0
#
DISCID=620eaf18
DTITLE=Various Artist - Hall of Fame:  Rare and Unissued Gems from th
DTITLE=e Fame Vaults, [Volume 1]
DYEAR=2012
DGENRE=Soul
TTITLE0=James Barnett - You're So Fine
TTITLE1=Jimmy Hughes - I Worship the Ground You Walk On
TTITLE2=June Conquest - I Do
TTITLE3=Richard Earl and The Corvettes - Blind Can't See
TTITLE4=Big Ben Atkins - Tell It Like It Is
TTITLE5=Jackie - Almost Persuaded
TTITLE6=Joe Simon - When It Comes to Dancing
TTITLE7=George Byrd and The Dominoes - It Ain't No Harm
TTITLE8=Prince Phillip - Keep on Talking
TTITLE9=The Entertainers - I Need Someone
TTITLE10=Ben and Spence - Hand Shakin'
TTITLE11=James Gilreath - Meet Me Tonight
TTITLE12=Clarence Carter - Tell Daddy
TTITLE13=Ralph "Soul" Jackson - You Really Know How to Hurt a Guy
TTITLE14=Jimmy Hughes - Steal Away '67 (Pt 1)
TTITLE15=Otis Clay - I'm Qualified
TTITLE16=Marjorie Ingram - In The Heat of Love
TTITLE17=Unknown Male Vocalist - Love Changes a Man
TTITLE18=Clarence Carter - Too Weak to Fight
TTITLE19=Otis Clay - Your Helping Hand
TTITLE20=O.B. McClinton - Two Big Legs and a Short Red Dress
TTITLE21=Bobby Moore and The Rhythm Aces - Baby Come Back
TTITLE22=Travis Wammack - Let's Do It Over
TTITLE23=George Jackson - For You
EXTD=
EXTT0=
EXTT1=
EXTT2=
EXTT3=
EXTT4=
EXTT5=
EXTT6=
EXTT7=
EXTT8=
EXTT9=
EXTT10=
EXTT11=
EXTT12=
EXTT13=
EXTT14=
EXTT15=
EXTT16=
EXTT17=
EXTT18=
EXTT19=
EXTT20=
EXTT21=
EXTT22=
EXTT23=
PLAYORDER=
